<?xml version="1.0" standalone="no"?>
<!DOCTYPE svg PUBLIC "-//W3C//DTD SVG 20010904//EN"
 "http://www.w3.org/TR/2001/REC-SVG-20010904/DTD/svg10.dtd">
<svg version="1.0" xmlns="http://www.w3.org/2000/svg"
 width="192.000000pt" height="192.000000pt" viewBox="0 0 192.000000 192.000000"
 preserveAspectRatio="xMidYMid meet">

<g transform="translate(0.000000,192.000000) scale(0.100000,-0.100000)"
fill="#000000" stroke="none">
<path d="M995 1879 c-82 -43 -156 -104 -181 -151 -23 -44 -20 -147 6 -198 13
-25 25 -47 29 -50 3 -3 11 -14 17 -25 8 -13 21 -19 38 -18 23 2 25 0 15 -18
-13 -26 -14 -25 54 -49 47 -17 84 -20 219 -20 174 -1 234 7 316 39 l52 21 -15
-24 c-9 -13 -35 -32 -58 -41 -56 -23 -282 -36 -416 -24 -66 5 -109 5 -116 -1
-7 -5 -13 -30 -13 -55 -2 -44 -2 -45 25 -34 22 8 30 6 47 -11 l21 -21 -27 6
c-23 6 -26 4 -21 -14 3 -12 8 -21 12 -22 3 0 29 -3 58 -5 47 -3 54 -1 77 27
27 32 37 18 16 -22 -9 -16 -7 -21 14 -31 33 -14 24 -28 -18 -28 -40 0 -65 -24
-49 -48 8 -13 5 -21 -13 -34 -12 -10 -26 -18 -30 -18 -4 0 -20 -12 -35 -26
l-28 -26 -7 36 c-5 30 -2 41 14 59 13 14 19 30 16 43 -4 16 -12 19 -41 16
l-36 -4 7 -72 c4 -48 12 -75 23 -83 12 -10 14 -22 9 -59 -4 -29 -2 -52 5 -60
6 -8 8 -22 5 -31 -6 -15 -9 -15 -17 -3 -8 11 -9 8 -4 -13 5 -25 3 -28 -17 -25
-19 2 -22 8 -20 31 3 23 0 27 -21 27 -13 0 -27 -3 -31 -7 -4 -5 -17 -9 -29 -9
-12 -1 -33 -5 -47 -8 -14 -3 -41 -7 -62 -8 -24 -1 -35 -5 -31 -13 2 -7 13 -11
24 -8 14 4 19 0 18 -13 0 -11 -3 -14 -5 -7 -4 8 -14 9 -35 3 -17 -5 -29 -5
-29 1 0 5 5 9 11 9 28 0 -3 25 -56 45 -33 12 -67 25 -76 29 -19 8 -101 -68
-98 -93 2 -27 -13 -61 -27 -61 -13 0 -24 -8 -76 -57 -9 -8 -16 -21 -15 -27 1
-6 -5 -11 -13 -11 -8 0 -20 -3 -25 -7 -6 -4 -30 -1 -53 5 -48 13 -79 1 -74
-27 4 -20 -54 -46 -109 -49 l-38 -3 24 31 c14 16 43 56 64 87 39 55 40 56 13
45 -15 -7 -39 -20 -54 -30 -16 -9 -39 -24 -53 -32 -22 -14 -25 -22 -25 -74 l0
-58 74 15 c41 8 82 12 92 8 14 -5 13 -9 -10 -27 -14 -11 -25 -23 -24 -27 3
-18 -21 -51 -74 -100 l-58 -54 0 -144 0 -145 188 5 c103 2 210 7 237 10 34 4
44 3 30 -3 -12 -6 261 -10 723 -10 l742 -1 0 140 0 139 -35 -1 c-50 -2 -85 33
-85 84 l0 38 60 0 60 0 0 155 0 154 -42 11 c-24 6 -91 26 -150 45 -58 19 -138
40 -177 47 -39 7 -71 15 -71 19 0 4 9 36 20 71 11 34 20 71 20 81 0 10 4 15
10 12 24 -15 90 136 90 208 0 44 -2 47 -25 47 -24 0 -25 2 -19 43 4 23 10 49
15 58 5 9 6 18 4 21 -3 3 4 13 15 23 11 10 20 22 20 26 0 4 11 19 25 33 25 25
25 25 8 68 -43 110 -107 209 -189 294 -90 94 -118 104 -271 104 l-128 0 -80
-41z m194 -1 c-1 -16 -3 -18 -6 -6 -2 9 -12 19 -21 21 -12 3 -10 5 6 6 17 1
22 -4 21 -21z m47 -193 c1 -14 5 -36 8 -49 10 -41 -16 -57 -82 -50 -31 4 -58
7 -59 8 -3 3 25 95 32 106 3 6 27 10 53 10 43 0 47 -2 48 -25z m-230 -117 c-3
-7 -9 -21 -12 -30 -7 -20 -20 -23 -29 -8 -3 6 -2 10 3 10 5 0 12 9 15 20 3 11
10 20 17 20 6 0 9 -6 6 -12z m216 -13 c-2 -10 -73 -15 -105 -7 -14 4 -16 7 -6
13 19 11 115 6 111 -6z m-227 -75 c-11 -5 -29 -9 -40 -9 -17 -1 -17 1 -5 9 8
5 26 9 40 9 23 0 23 -1 5 -9z m9 -205 c3 -8 4 -15 2 -15 -3 0 -11 -3 -19 -6
-12 -4 -14 0 -10 15 6 25 18 27 27 6z m339 -39 c4 -9 0 -13 -11 -12 -9 2 -18
8 -20 14 -5 17 25 15 31 -2z m67 10 c0 -3 -4 -8 -10 -11 -5 -3 -10 -1 -10 4 0
6 5 11 10 11 6 0 10 -2 10 -4z m-310 -20 c0 -2 -9 -6 -20 -9 -11 -3 -20 -1
-20 4 0 5 9 9 20 9 11 0 20 -2 20 -4z m58 -308 c2 6 13 7 25 4 22 -6 22 -6 -3
-13 -36 -10 -103 -10 -119 0 -11 7 -10 11 5 19 13 8 28 6 54 -4 19 -9 36 -11
38 -6z m-291 -141 c3 -4 16 -7 27 -8 12 -1 2 -7 -23 -15 -40 -12 -45 -12 -57
4 -10 13 -13 14 -14 3 0 -8 -3 -11 -6 -8 -4 4 -2 12 4 20 11 13 57 16 69 4z
m-246 -109 c-15 -43 -14 -58 7 -59 15 -1 15 -2 0 -6 -9 -2 -17 -12 -16 -21 0
-9 -1 -40 -2 -68 -3 -52 14 -99 30 -89 5 3 12 -7 16 -22 3 -15 7 -34 10 -40 6
-20 -47 -16 -62 5 -9 12 -31 18 -81 22 -65 5 -68 6 -67 30 1 14 4 33 9 43 7
17 6 18 -30 3 -21 -9 -44 -24 -51 -34 -12 -15 -13 -15 -13 8 -1 14 8 43 18 65
10 22 21 53 25 69 11 44 34 73 69 86 55 21 122 55 126 64 2 5 8 1 13 -8 6 -11
6 -28 -1 -48z m167 -153 c0 -38 -1 -39 -8 -10 -4 17 -8 46 -8 65 0 32 1 33 8
10 4 -14 8 -43 8 -65z m761 5 c11 -24 11 -24 -3 -6 -9 11 -16 24 -16 30 0 12
5 7 19 -24z m-507 -15 c-3 -18 0 -25 12 -25 9 0 16 -4 16 -10 0 -5 -4 -10 -8
-10 -5 0 -17 -8 -28 -19 -12 -10 -35 -22 -53 -26 -31 -7 -33 -6 -26 16 6 17
76 93 91 99 1 0 -1 -11 -4 -25z m-245 -87 c-3 -7 -5 -2 -5 12 0 14 2 19 5 13
2 -7 2 -19 0 -25z m237 -15 c-5 -5 -12 -12 -16 -18 -4 -6 -8 -2 -8 8 0 9 7 17
17 17 9 0 12 -3 7 -7z m-668 -29 c-10 -40 0 -60 32 -59 25 0 27 3 26 42 0 23
3 40 8 37 4 -3 8 -20 8 -38 0 -62 -65 -89 -84 -35 -9 25 -2 79 10 79 4 0 3
-12 0 -26z m404 -4 c-20 -13 -40 -13 -40 0 0 6 12 10 28 10 21 0 24 -2 12 -10z
m123 -17 c-7 -17 -20 -17 -26 1 -4 10 0 14 12 13 11 -1 17 -7 14 -14z m157 13
c0 -3 -4 -8 -10 -11 -5 -3 -10 -1 -10 4 0 6 5 11 10 11 6 0 10 -2 10 -4z
m-447 -79 c-3 -51 -23 -70 -67 -62 -28 6 -35 4 -40 -12 -4 -12 -22 -24 -44
-30 l-37 -10 33 -2 c31 -1 32 -2 20 -23 -7 -13 -13 -39 -14 -58 0 -33 -3 -36
-45 -46 -54 -14 -69 -9 -69 22 0 25 -24 34 -33 12 -4 -9 -6 -9 -6 -2 -1 15 65
74 82 74 8 0 7 4 -3 11 -11 8 -12 12 -2 16 6 2 12 9 12 15 0 6 -6 5 -15 -2 -9
-7 -14 -19 -11 -27 3 -7 -1 -13 -9 -13 -8 0 -15 5 -15 12 0 6 -9 3 -20 -7 -11
-10 -20 -24 -20 -32 0 -7 -5 -13 -10 -13 -13 0 16 59 39 80 9 8 28 21 43 27
20 9 26 17 21 29 -6 15 -7 15 -20 -2 -7 -10 -13 -13 -13 -7 0 15 36 44 44 36
4 -5 13 -1 19 8 17 23 95 48 142 46 40 -2 40 -2 38 -40z m311 9 c-6 -16 -24
-23 -24 -8 0 10 22 33 27 28 2 -2 1 -11 -3 -20z m328 18 c29 -5 40 -13 53 -41
12 -24 13 -38 6 -47 -20 -24 -241 22 -241 51 0 3 13 3 29 0 22 -5 34 0 51 19
24 25 40 28 102 18z m-324 -82 c-7 -18 -16 -32 -19 -32 -4 0 -15 -7 -23 -16
-9 -8 -16 -10 -16 -4 0 6 6 13 14 16 7 3 22 20 32 39 22 42 28 40 12 -3z
m-384 -27 c-7 -17 -20 -20 -28 -6 -7 10 3 21 20 21 8 0 11 -6 8 -15z m551 -3
c-3 -3 -11 0 -18 7 -9 10 -8 11 6 5 10 -3 15 -9 12 -12z m-561 -30 c3 -5 -1
-9 -9 -9 -8 0 -15 4 -15 9 0 4 4 8 9 8 6 0 12 -4 15 -8z m596 -28 c0 -2 -9 0
-20 6 -11 6 -20 13 -20 16 0 2 9 0 20 -6 11 -6 20 -13 20 -16z"/>
<path d="M533 289 c-14 -5 -23 -17 -23 -29 0 -25 12 -26 34 -1 23 26 17 41
-11 30z m7 -13 c0 -3 -4 -8 -10 -11 -5 -3 -10 -1 -10 4 0 6 5 11 10 11 6 0 10
-2 10 -4z"/>
<path d="M460 250 c-8 -5 -10 -10 -5 -10 6 0 17 5 25 10 8 5 11 10 5 10 -5 0
-17 -5 -25 -10z"/>
<path d="M420 230 c-9 -6 -10 -10 -3 -10 6 0 15 5 18 10 8 12 4 12 -15 0z"/>
<path d="M886 1184 c-9 -24 -2 -26 12 -4 7 11 8 20 3 20 -5 0 -12 -7 -15 -16z"/>
<path d="M911 994 c0 -11 3 -14 6 -6 3 7 2 16 -1 19 -3 4 -6 -2 -5 -13z"/>
<path d="M920 955 c0 -23 36 -59 45 -45 3 5 -1 12 -8 17 -8 4 -19 17 -25 28
-11 20 -11 20 -12 0z"/>
</g>
</svg>
