<?xml version="1.0" standalone="no"?>
<!DOCTYPE svg PUBLIC "-//W3C//DTD SVG 20010904//EN"
 "http://www.w3.org/TR/2001/REC-SVG-20010904/DTD/svg10.dtd">
<svg version="1.0" xmlns="http://www.w3.org/2000/svg"
 width="512.000000pt" height="512.000000pt" viewBox="0 0 512.000000 512.000000"
 preserveAspectRatio="xMidYMid meet">

<g transform="translate(0.000000,512.000000) scale(0.100000,-0.100000)"
fill="#000000" stroke="none">
<path d="M2845 5110 c-4 -6 -36 -24 -73 -41 -36 -16 -73 -35 -82 -42 -8 -7
-35 -22 -60 -32 -121 -52 -267 -146 -255 -165 3 -4 -9 -13 -25 -20 -16 -7 -55
-40 -85 -74 -74 -81 -72 -79 -102 -137 -22 -45 -26 -71 -34 -206 -9 -146 -8
-159 12 -217 12 -33 27 -68 34 -76 16 -19 65 -123 65 -138 0 -7 6 -12 13 -12
8 0 22 -19 33 -42 21 -47 54 -64 54 -29 0 23 7 26 29 12 16 -10 6 -31 -15 -31
-8 0 -14 -9 -14 -20 0 -28 39 -42 65 -24 23 16 75 19 75 4 0 -5 -4 -10 -9 -10
-5 0 -16 -12 -26 -26 -32 -49 -12 -69 140 -133 87 -37 133 -42 480 -52 471
-15 634 -2 840 66 175 58 200 66 218 76 28 15 32 4 8 -20 -11 -11 -20 -31 -18
-43 2 -19 -10 -29 -68 -60 -38 -20 -104 -44 -145 -53 -41 -9 -94 -21 -118 -26
-24 -5 -123 -12 -220 -14 -97 -3 -226 -10 -287 -16 -104 -11 -287 -3 -633 28
-58 5 -106 -3 -98 -16 3 -5 -4 -17 -15 -27 -15 -14 -19 -26 -15 -49 3 -16 6
-59 7 -95 1 -36 7 -68 13 -72 12 -8 62 1 94 18 35 18 78 -15 96 -74 7 -22 6
-23 -14 -12 -11 6 -33 10 -48 8 -23 -3 -27 -7 -25 -33 1 -16 11 -41 21 -55 20
-26 19 -26 137 -20 11 0 21 -4 23 -10 8 -24 152 -4 152 22 0 4 5 8 11 8 5 0
24 13 42 30 18 16 35 30 40 30 4 0 7 7 7 15 0 8 5 15 10 15 16 0 12 -45 -9
-92 -16 -39 -17 -47 -4 -71 8 -16 22 -27 34 -27 11 0 34 -7 51 -16 l30 -16
-23 -24 c-25 -26 -76 -32 -107 -13 -26 16 -115 -14 -136 -46 -26 -40 -14 -105
19 -105 25 0 26 -18 2 -42 -26 -26 -110 -72 -147 -82 -14 -3 -49 -28 -78 -56
-29 -28 -56 -48 -61 -46 -14 9 -41 102 -41 140 0 30 6 40 35 58 50 33 67 74
59 143 -7 57 -22 76 -47 58 -6 -5 -31 -11 -53 -12 -60 -3 -86 -9 -96 -23 -12
-17 -3 -210 11 -236 6 -11 11 -49 11 -84 0 -70 10 -88 50 -88 14 0 31 -4 39
-9 12 -8 13 -12 1 -25 -9 -12 -11 -34 -7 -77 4 -47 1 -72 -14 -105 l-18 -44
28 -48 c33 -56 44 -102 25 -102 -7 0 -20 -3 -29 -6 -11 -5 -18 0 -22 15 -3 11
-9 21 -14 21 -14 0 -11 -47 5 -84 l14 -34 -53 -7 c-37 -4 -60 -2 -74 7 -26 16
-26 22 -2 45 23 21 23 79 0 94 -29 18 -95 10 -125 -16 -30 -26 -54 -30 -89
-16 -13 6 -33 2 -57 -10 -21 -11 -47 -19 -58 -19 -12 0 -30 -5 -41 -11 -14 -7
-24 -7 -33 0 -13 11 -79 5 -108 -10 -10 -6 -19 -5 -23 1 -9 15 -53 12 -62 -5
-9 -16 -22 -13 -127 26 -27 11 -54 19 -60 19 -6 0 -43 16 -82 36 -80 40 -141
52 -181 35 -28 -12 -103 -100 -103 -120 0 -6 -4 -11 -10 -11 -18 0 -25 -4 -47
-31 -18 -21 -22 -37 -21 -89 1 -42 -2 -65 -10 -68 -7 -2 -12 -12 -12 -22 0
-38 -12 -50 -48 -50 -27 0 -45 -9 -81 -43 -26 -23 -71 -61 -100 -85 -30 -23
-48 -42 -40 -42 8 0 6 -5 -6 -13 -10 -8 -23 -29 -29 -48 -8 -25 -17 -33 -31
-32 -11 1 -35 -5 -52 -13 -29 -13 -38 -13 -85 1 -29 9 -93 18 -143 22 l-90 6
-17 -38 c-13 -28 -14 -43 -6 -66 6 -17 9 -31 7 -33 -2 -2 -49 -20 -104 -41
-84 -31 -112 -37 -175 -37 -41 0 -80 -4 -87 -10 -7 -5 -19 -8 -27 -6 -15 3 36
77 118 170 22 25 61 79 86 118 25 39 57 86 72 103 15 18 28 38 28 45 0 6 5 12
12 12 6 0 9 2 6 5 -11 11 -118 -37 -165 -74 -26 -21 -75 -51 -108 -66 -33 -16
-75 -41 -93 -57 -18 -15 -37 -28 -42 -28 -6 0 -10 -62 -10 -155 0 -143 1 -155
18 -155 10 0 22 4 28 10 5 5 43 15 84 21 41 6 98 16 125 21 91 17 136 20 181
13 57 -8 57 -33 -1 -51 -22 -6 -36 -12 -32 -13 5 -1 -1 -14 -12 -30 -12 -16
-21 -41 -21 -56 0 -15 -10 -36 -24 -48 -13 -13 -26 -36 -28 -51 -1 -16 -12
-34 -23 -40 -11 -6 -42 -29 -70 -51 -27 -22 -59 -47 -69 -55 -23 -18 -40 -36
-107 -110 l-49 -54 0 -383 0 -383 487 0 c441 0 488 2 505 17 23 21 160 43 212
34 44 -7 54 -24 16 -29 -136 -19 169 -22 1928 -22 l1972 0 0 375 0 375 -47 -4
c-27 -2 -56 -7 -65 -11 -28 -11 -90 15 -133 57 -22 21 -48 41 -57 44 -15 4
-18 19 -20 87 -1 86 1 129 7 135 2 2 74 4 159 3 l156 0 0 418 0 418 -77 18
c-153 35 -341 88 -378 107 -39 20 -259 85 -415 122 -80 20 -234 46 -267 46
-46 0 -43 24 28 247 21 67 39 139 39 162 0 42 9 53 50 59 36 5 62 32 56 58 -4
13 0 27 10 35 30 25 71 94 82 140 6 25 26 77 43 115 28 62 32 81 36 184 6 143
0 154 -78 155 -54 0 -54 0 -53 30 3 54 30 190 44 215 7 13 12 42 12 63 -2 33
2 40 32 58 24 14 40 35 56 74 12 30 28 55 35 55 16 0 81 71 89 98 4 11 0 37
-8 58 -40 109 -75 193 -94 229 -12 22 -22 45 -22 50 0 6 -9 21 -19 32 -11 11
-34 49 -52 84 -17 35 -42 78 -53 94 -12 17 -31 47 -42 68 -10 22 -53 76 -95
120 -41 45 -89 103 -107 128 -51 76 -209 209 -312 263 -30 16 -62 35 -71 42
-12 11 -87 14 -377 14 -235 0 -363 -4 -367 -10z m323 -84 c2 -21 -1 -43 -7
-49 -8 -8 -11 -2 -11 21 0 28 -4 32 -35 38 -53 10 -47 36 8 32 41 -3 42 -4 45
-42z m322 -41 c-13 -15 -15 -15 -22 5 -11 30 1 46 20 26 13 -13 13 -17 2 -31z
m-204 -432 c8 -3 11 -16 7 -39 -3 -18 -1 -39 4 -46 18 -22 25 -134 12 -177
-10 -33 -19 -43 -56 -59 -36 -15 -53 -17 -86 -10 -23 5 -73 10 -112 12 -83 3
-118 13 -112 31 3 7 9 33 12 59 4 25 11 49 16 52 5 3 9 17 9 32 0 43 11 72 27
72 11 0 14 8 11 30 -4 28 -2 31 36 41 23 5 46 12 51 14 12 5 162 -4 181 -12z
m-598 -364 c2 -19 -4 -31 -23 -43 -19 -12 -25 -24 -22 -37 10 -38 -47 -66 -72
-35 -10 12 -8 18 12 31 18 11 23 22 20 40 -4 17 3 32 21 50 32 32 60 29 64 -6z
m558 -21 c37 -36 -15 -73 -82 -58 -22 5 -76 9 -122 9 -51 -1 -89 4 -98 12 -37
30 45 54 186 54 79 0 103 -3 116 -17z m-611 -222 c-50 -20 -200 -47 -155 -29
8 3 17 9 20 13 16 23 71 39 130 39 l65 0 -60 -23z m39 -536 c14 -28 13 -32 -7
-50 -19 -19 -77 -28 -77 -13 0 19 44 93 55 93 8 0 20 -14 29 -30z m901 -107
l25 -38 -41 -3 c-28 -2 -47 2 -60 14 -19 17 -19 18 3 41 30 32 43 29 73 -14z
m165 18 c0 -5 -7 -14 -15 -21 -13 -10 -15 -9 -15 9 0 12 6 21 15 21 8 0 15 -4
15 -9z m-870 -52 c0 -4 -9 -13 -20 -19 -17 -9 -20 -8 -20 8 0 10 3 21 6 25 8
8 34 -3 34 -14z m136 -461 c-9 -5 -22 -7 -29 -4 -7 2 -4 5 6 5 9 1 17 6 17 12
0 5 5 7 11 3 8 -5 6 -10 -5 -16z m-78 -170 c-3 -7 -13 -15 -24 -17 -16 -3 -17
-1 -5 13 16 19 34 21 29 4z m-68 -33 c-7 -9 -15 -13 -17 -11 -7 7 7 26 19 26
6 0 6 -6 -2 -15z m158 -151 c25 -13 52 -24 60 -24 12 0 13 -3 5 -11 -8 -8 -48
-11 -107 -11 -159 2 -220 31 -138 65 48 20 120 13 180 -19z m-768 -373 c30 -4
69 -15 87 -24 18 -9 42 -17 55 -17 43 0 3 -17 -70 -29 -39 -7 -70 -17 -66 -22
3 -5 -10 -9 -28 -9 -29 0 -36 5 -57 49 -24 50 -21 77 8 66 9 -4 41 -10 71 -14z
m-325 -61 c7 0 15 4 17 9 2 5 15 13 31 16 25 7 27 5 27 -23 0 -40 -14 -48 -35
-20 -12 16 -19 19 -22 10 -3 -8 -15 -11 -38 -6 -19 3 -35 1 -39 -5 -11 -16
-46 -13 -46 4 0 8 9 15 20 15 13 0 20 7 20 18 0 31 11 33 32 7 11 -14 25 -25
33 -25z m199 5 c-4 -8 -8 -15 -10 -15 -2 0 -4 7 -4 15 0 8 4 15 10 15 5 0 7
-7 4 -15z m-454 -138 c11 -42 11 -50 -5 -67 -12 -13 -15 -27 -10 -49 5 -25 3
-31 -10 -31 -13 0 -15 -7 -9 -37 4 -21 12 -41 18 -45 8 -6 7 -11 -3 -17 -8 -5
-10 -14 -6 -21 4 -7 3 -15 -2 -19 -22 -13 -33 -287 -15 -368 13 -59 37 -93 67
-93 33 0 55 -36 55 -91 0 -26 7 -59 15 -75 19 -38 3 -47 -66 -38 -50 7 -61 13
-97 62 -20 27 -106 40 -272 41 -120 2 -134 10 -125 71 8 48 27 113 38 127 5 7
6 17 2 22 -7 13 -64 3 -85 -14 -19 -16 -79 -43 -104 -47 -12 -2 -23 -15 -27
-31 -9 -32 -27 -57 -41 -57 -28 0 26 225 70 290 24 36 42 79 42 104 0 42 36
133 67 173 38 47 131 98 198 108 25 4 45 11 45 16 0 5 12 14 28 19 77 28 181
87 192 109 14 30 23 20 40 -42z m310 -26 c0 -11 -4 -22 -9 -25 -11 -7 -20 14
-13 32 7 19 22 14 22 -7z m99 -322 c1 -24 6 -48 10 -54 5 -5 11 -41 15 -80 3
-38 9 -80 12 -92 5 -19 2 -23 -15 -23 -12 0 -24 6 -26 13 -6 17 -21 278 -16
282 10 10 17 -7 20 -46z m2051 -159 c0 -11 5 -20 12 -20 6 0 8 -3 5 -6 -9 -9
-37 15 -37 32 0 8 5 14 10 14 6 0 10 -9 10 -20z m-1300 -20 c0 -19 -5 -30 -14
-30 -8 0 -17 -4 -21 -9 -9 -15 16 -60 37 -67 15 -4 17 -9 7 -20 -6 -8 -17 -14
-23 -14 -7 0 -25 -13 -41 -30 -16 -16 -35 -30 -42 -30 -7 0 -13 -7 -13 -15 0
-20 -40 -41 -50 -26 -5 9 -21 6 -60 -9 -58 -23 -96 -19 -84 8 4 10 12 31 18
48 16 45 30 59 102 106 35 22 64 46 64 52 0 7 20 21 45 33 25 11 45 17 45 12
0 -5 5 -9 10 -9 6 0 10 7 10 15 0 8 2 15 5 15 3 0 5 -13 5 -30z m-832 -156
c-10 -10 -28 6 -28 24 0 15 1 15 17 -1 9 -9 14 -19 11 -23z m137 -38 c8 -51
-2 -93 -17 -78 -15 15 -26 88 -16 106 15 27 26 18 33 -28z m593 -93 c3 -18
-23 -52 -32 -42 -2 2 -1 19 1 37 6 35 26 39 31 5z m-1573 -25 c16 -19 20 -37
20 -102 l-1 -78 -44 -40 c-60 -52 -69 -57 -108 -46 -48 13 -92 78 -92 137 0
42 31 131 45 131 3 0 3 -38 -1 -85 -6 -70 -4 -89 10 -110 13 -20 20 -23 35
-16 12 7 26 5 45 -5 40 -20 44 -18 62 24 16 37 15 138 -1 190 -4 12 -3 22 2
22 5 0 17 -10 28 -22z m680 -8 c3 -5 1 -10 -4 -10 -6 0 -11 5 -11 10 0 6 2 10
4 10 3 0 8 -4 11 -10z m249 -28 c11 -17 -12 -29 -66 -36 -53 -6 -58 -4 -58 13
0 11 6 22 13 24 20 9 105 8 111 -1z m71 -1 c3 -5 1 -12 -5 -16 -5 -3 -10 1
-10 9 0 18 6 21 15 7z m204 -43 c12 -21 13 -31 3 -52 -15 -33 -46 -25 -39 10
2 14 -2 25 -9 28 -8 3 -14 15 -14 26 0 31 40 22 59 -12z m431 10 c-1 -7 -7
-24 -14 -37 -16 -29 -29 -13 -20 24 6 25 34 36 34 13z m-1216 -105 c31 -5 41
-12 52 -39 12 -30 12 -39 -1 -70 -8 -20 -15 -54 -15 -75 0 -32 -5 -42 -25 -51
-14 -6 -31 -21 -40 -34 -12 -18 -26 -24 -67 -26 -50 -3 -53 -5 -58 -33 -6 -35
-33 -44 -60 -20 -27 25 -6 55 38 55 23 0 32 4 30 13 -3 7 -21 12 -42 12 -34 0
-41 -4 -60 -38 -16 -31 -33 -44 -80 -63 -32 -13 -73 -26 -92 -30 -69 -13 -33
-34 57 -34 53 0 58 -2 50 -17 -5 -10 -18 -36 -30 -59 -11 -23 -18 -44 -15 -47
4 -4 -1 -22 -10 -41 -20 -43 -20 -51 1 -87 16 -27 16 -30 0 -46 -12 -12 -48
-22 -110 -30 -172 -22 -191 -16 -192 63 0 47 -1 49 -30 52 -16 2 -34 7 -38 12
-8 7 92 120 107 120 4 0 14 7 22 15 14 13 14 16 0 21 -18 7 -86 -22 -86 -36 0
-6 -7 -10 -15 -10 -8 0 -15 7 -15 15 0 8 5 15 11 15 16 0 50 41 43 51 -12 21
-46 7 -65 -26 -12 -19 -25 -35 -30 -35 -5 0 -9 -13 -9 -30 0 -16 -2 -30 -4
-30 -2 0 -11 -3 -20 -6 -11 -4 -16 -1 -16 11 0 29 60 132 99 168 20 19 49 49
64 65 15 17 34 29 41 26 7 -3 19 2 26 11 7 8 20 15 30 15 20 0 45 43 37 64 -4
9 -16 16 -27 16 -11 0 -20 6 -20 14 0 22 26 37 53 31 28 -8 82 25 90 54 3 12
35 26 103 46 54 15 110 34 124 41 27 14 130 18 194 7z m1724 -29 c18 -8 32
-20 32 -25 0 -5 14 -9 30 -9 29 0 37 -6 95 -70 30 -33 43 -173 15 -155 -5 3
-11 1 -15 -5 -3 -5 2 -10 12 -11 10 0 5 -5 -12 -10 -21 -6 -34 -5 -45 5 -18
16 -57 23 -225 42 -71 8 -142 16 -156 18 -31 5 -189 94 -189 107 0 15 64 10
88 -7 25 -17 66 -15 68 4 1 6 2 17 3 22 0 6 7 10 15 10 8 0 23 14 33 30 9 17
24 30 33 30 8 1 31 9 50 20 43 24 125 26 168 4z m-859 -52 c-20 -51 -62 -59
-57 -10 2 25 9 34 28 39 35 8 41 2 29 -29z m1211 -82 c0 -5 -2 -10 -4 -10 -3
0 -8 5 -11 10 -3 6 -1 10 4 10 6 0 11 -4 11 -10z m-1166 -16 c3 -9 -4 -28 -16
-44 -39 -49 -51 -34 -22 26 18 37 29 42 38 18z m-64 -123 c0 -21 -22 -42 -68
-65 -18 -9 -30 -21 -27 -26 7 -11 -18 -14 -28 -4 -9 9 105 124 115 118 4 -3 8
-13 8 -23z m450 4 c52 -27 71 -54 23 -33 -41 18 -100 58 -85 58 7 0 35 -11 62
-25z m-1500 -110 c0 -16 -27 -32 -37 -22 -3 4 -3 13 0 22 8 20 37 20 37 0z
m1560 -40 c16 -19 3 -19 -30 0 -24 13 -24 14 -4 15 12 0 27 -7 34 -15z m-2100
-220 c0 -8 -4 -15 -10 -15 -5 0 -10 7 -10 15 0 8 5 15 10 15 6 0 10 -7 10 -15z"/>
<path d="M2280 2040 c0 -5 5 -10 10 -10 6 0 10 5 10 10 0 6 -4 10 -10 10 -5 0
-10 -4 -10 -10z"/>
<path d="M1428 773 c-32 -5 -35 -11 -11 -28 19 -14 11 -45 -12 -45 -10 0 -15
10 -15 30 0 17 -5 30 -10 30 -16 0 -31 -51 -25 -82 13 -58 46 -49 108 31 25
33 43 62 40 65 -7 6 -29 6 -75 -1z"/>
<path d="M1235 669 c-24 -15 -26 -19 -11 -19 27 0 86 22 86 32 0 14 -44 7 -75
-13z"/>
<path d="M1106 604 c-4 -11 -1 -14 11 -12 9 2 18 9 21 16 6 18 -25 15 -32 -4z"/>
<path d="M1008 518 c-24 -30 -23 -40 5 -36 16 2 23 11 25 31 4 33 -7 34 -30 5z"/>
<path d="M965 459 c-10 -15 3 -25 16 -12 7 7 7 13 1 17 -6 3 -14 1 -17 -5z"/>
<path d="M2370 3181 c0 -24 15 -35 36 -27 12 4 13 10 4 26 -14 26 -40 26 -40
1z"/>
<path d="M2384 2709 c-3 -6 -1 -16 5 -22 8 -8 11 -5 11 11 0 24 -5 28 -16 11z"/>
<path d="M2441 2654 c0 -11 3 -14 6 -6 3 7 2 16 -1 19 -3 4 -6 -2 -5 -13z"/>
<path d="M2465 2525 c5 -68 10 -77 39 -69 19 4 26 0 37 -24 17 -38 29 -32 29
15 0 24 -4 34 -12 30 -30 -11 -58 12 -69 58 -16 62 -29 57 -24 -10z"/>
</g>
</svg>
